# xmcd
#
# Track frame offsets:
#	150
#	15380
#	31283
#	43213
#	60605
#	79428
#	92883
#	107040
#	121350
#	137255
#	155603
#	171600
#	187460
#	202015
#
# Disc length: 2899 seconds
# Revision: 0
# Processed by: cddbd v1.5.2PL0 Copyright (c) Steve Scherf et al.
# Submitted via: dBpowerAMP V12.0
#
DISCID=cb0b510e
DTITLE=Various Artist - Spotlight On Hits (Country Vol. 10)
DYEAR=1993
DGENRE=Country
TTITLE0=Mary-Chapin Carpenter - Passionate Kisses
TTITLE1=Radney Foster - Nobody Wins
TTITLE2=Tanya Tucker - It's A Little Too Late
TTITLE3=Mark Chesnutt - Ol' Country
TTITLE4=Kathy Mattea - Standing Knee Deep In A River
TTITLE5=Brooks and Dunn - Hard Workin' Man
TTITLE6=Mark Collie - Born To Love You
TTITLE7=Doug Stone - Made For Loving You
TTITLE8=Pam Tillis - Let That Pony Run
TTITLE9=Marty Stuart - High On A Mountain Top
TTITLE10=Gibson\Miller Band - High Rollin'
TTITLE11=Alan Jackson - Tonight I Climbed The Walls
TTITLE12=Skip Ewing - Losing You Is New To Me
TTITLE13=Billy Ray Cyrus - She's Not Crying Anymore
EXTD=
EXTT0=
EXTT1=
EXTT2=
EXTT3=
EXTT4=
EXTT5=
EXTT6=
EXTT7=
EXTT8=
EXTT9=
EXTT10=
EXTT11=
EXTT12=
EXTT13=
PLAYORDER=
